PathFileType	4	(X/Y/Z)	Kaydara																																																																																																																									
DataRate	CameraRate	NumFrames	NumMarkers	Units	OrigDataRate	OrigDataStartFrame	OrigNumFrames																																																																																																																					
30	30	6	41	mm	30	326	372																																																																																																																					
Frame#	Time	NABA_LFHD			NABA_RFHD			NABA_LBHD			NABA_RBHD			NABA_LFTShould			NABA_RFTShould			NABA_LRRShould			NABA_RRRShould			NABA_T10			NABA_STRN			NABA_TRUN			NABA_LSHO			NABA_LUPA			NABA_LELB			NABA_LFRM			NABA_LWRA			NABA_LWRB			NABA_LFIN			NABA_RSHO			NABA_RUPA			NABA_RELB			NABA_RFRM			NABA_RWRA			NABA_RWRB			NABA_RFIN			NABA_LFWT			NABA_RFWT			NABA_LBWT			NABA_RBWT			NABA_LTHI			NABA_LKNE			NABA_LSHN			NABA_LANK			NABA_LHEE			NABA_LTOE			NABA_RTHI			NABA_RKNE			NABA_RSHN			NABA_RANK			NABA_RHEE			NABA_RTOE		
		X1	Y1	Z1	X2	Y2	Z2	X3	Y3	Z3	X4	Y4	Z4	X5	Y5	Z5	X6	Y6	Z6	X7	Y7	Z7	X8	Y8	Z8	X9	Y9	Z9	X10	Y10	Z10	X11	Y11	Z11	X12	Y12	Z12	X13	Y13	Z13	X14	Y14	Z14	X15	Y15	Z15	X16	Y16	Z16	X17	Y17	Z17	X18	Y18	Z18	X19	Y19	Z19	X20	Y20	Z20	X21	Y21	Z21	X22	Y22	Z22	X23	Y23	Z23	X24	Y24	Z24	X25	Y25	Z25	X26	Y26	Z26	X27	Y27	Z27	X28	Y28	Z28	X29	Y29	Z29	X30	Y30	Z30	X31	Y31	Z31	X32	Y32	Z32	X33	Y33	Z33	X34	Y34	Z34	X35	Y35	Z35	X36	Y36	Z36	X37	Y37	Z37	X38	Y38	Z38	X39	Y39	Z39	X40	Y40	Z40	X41	Y41	Z41
																																																																																																																												
326	10.843	353.951	1417.00958	1489.45618	183.78307	1390.76965	1481.51855	373.72543	1502.77313	1398.51944	154.47532	1461.94504	1413.52493	344.78413	1281.49414	1311.53244	211.18183	1279.62181	1305.22903	351.6317	1355.71854	1205.67703	201.4765	1353.44879	1206.35475	287.31436	1206.54602	1103.1472	276.53072	1220.94948	1346.60477	273.31287	1118.45726	1380.59799	447.7578	1310.09048	1269.65088	500.32852	1072.07581	1219.13757	505.76138	985.90744	1236.72653	496.42223	914.69238	1210.55916	431.8726	766.73622	1280.41061	504.92912	763.99284	1279.31984	481.0434	705.38544	1318.70621	119.41993	1311.8512	1264.05449	65.76268	1112.04147	1176.60713	41.08523	987.93999	1210.62943	36.73987	893.9315	1210.46944	105.21735	764.58298	1277.89894	30.79672	752.98988	1277.68227	47.53377	713.50311	1304.95895	398.06236	912.22145	1293.5582	134.47056	911.35941	1275.04166	365.55046	981.35139	1123.79738	193.74037	998.1282	1109.43832	405.80963	609.46236	1188.62144	394.51202	469.34948	1264.27475	335.73017	281.46713	1313.28888	361.7395	121.93359	1268.50975	304.82931	69.7854	1215.64018	326.30383	45.02353	1406.3089	141.98402	643.52043	1095.52979	140.20211	463.70468	1182.7433	155.77993	300.78564	1096.72943	151.60819	158.93103	951.01875	199.66753	144.75509	867.72621	204.92987	44.32334	1040.44922
327	10.877	357.68875	1416.76865	1504.75571	187.54103	1390.79544	1496.02234	378.01636	1502.7565	1414.15436	158.64928	1462.16217	1428.01895	349.11568	1282.02057	1326.87378	215.90624	1279.95415	1319.31458	356.57871	1356.13113	1220.84236	206.38718	1354.16687	1220.76614	292.49447	1207.12158	1117.91428	280.70877	1221.39404	1361.54449	277.30524	1118.95203	1395.6311	452.27173	1310.43564	1285.51636	505.88161	1071.99623	1237.46307	510.47848	985.83427	1255.62363	501.77917	914.58885	1229.46228	435.50144	767.18475	1298.74634	508.62671	764.2691	1299.03229	483.63121	705.80032	1338.17001	124.1307	1312.60941	1278.35899	70.19206	1112.58904	1191.28433	45.28965	988.57582	1225.81322	41.6156	894.15962	1227.12181	111.17989	766.51634	1296.61423	36.91555	754.30252	1296.87134	53.7986	715.76698	1324.98871	402.47078	912.65022	1308.92731	139.02371	912.45399	1290.14557	369.88205	981.70967	1138.67226	198.52262	998.32642	1124.08707	407.99656	610.25669	1199.66583	396.83971	469.04045	1273.51952	336.46698	280.37275	1319.12827	361.23058	121.7705	1270.37689	304.52639	70.65209	1216.58028	326.01383	44.89734	1406.59134	144.3509	643.55087	1112.70699	139.30732	464.05437	1201.7543	153.25449	303.29233	1110.50156	149.51738	166.37966	960.00267	198.01346	155.27482	877.11884	204.30681	43.76061	1043.00926
328	10.91	361.44547	1416.35071	1519.26941	191.26534	1390.48492	1509.56604	382.19395	1502.63519	1428.99948	162.77088	1462.41364	1442.21741	353.59772	1282.57187	1341.17645	220.48031	1280.49469	1333.21609	361.3377	1356.51154	1235.04196	211.09884	1354.68781	1234.43054	297.24804	1207.46536	1131.91612	285.07589	1222.00623	1375.82886	281.51438	1119.50562	1409.98932	456.82167	1310.87311	1300.01099	510.42534	1071.83083	1254.50485	514.52118	985.82008	1273.61938	506.3134	914.55338	1247.9808	439.05388	767.63496	1317.38876	512.19879	764.79576	1318.92242	486.31111	706.61697	1358.00491	128.77841	1313.19122	1292.18933	74.36857	1112.69814	1205.91736	49.34693	988.93364	1241.38329	46.31284	894.14467	1244.4043	117.42981	768.28262	1315.74783	43.13382	755.72853	1316.77338	60.38559	717.9467	1345.72403	406.65531	913.09036	1323.6618	143.28427	913.57384	1305.08957	373.12061	981.91589	1152.8611	202.3418	998.33038	1138.50502	411.44432	611.0717	1211.5303	399.20841	468.75183	1283.2637	337.08183	279.35516	1324.78928	361.62907	121.68107	1272.96165	304.90683	71.60464	1217.40929	326.00586	44.83032	1406.65985	146.37693	642.82944	1130.81055	139.3162	464.17122	1222.58827	151.55499	305.14002	1125.79063	147.80157	174.52917	970.99258	196.84359	166.55468	888.33908	203.90316	43.29718	1046.09474
329	10.943	365.29083	1416.03409	1532.59399	195.04345	1390.37079	1522.38342	386.29444	1502.66479	1442.66525	166.80355	1462.52274	1455.22049	357.8347	1283.30322	1354.65271	224.77007	1281.30447	1346.63544	365.64957	1356.78986	1248.14003	215.37943	1355.14618	1247.4408	301.37455	1207.65671	1145.23964	289.35413	1222.85416	1389.32968	285.77719	1120.36003	1423.62915	461.11057	1311.50009	1313.47015	514.24347	1071.78925	1270.17883	518.25039	986.03951	1290.21469	509.88853	914.3924	1265.38208	442.36691	768.38257	1336.43356	515.41424	765.51361	1338.23959	489.57615	707.75764	1377.73987	133.19002	1313.86688	1305.45059	78.22567	1112.81685	1220.7798	53.39278	989.29611	1257.35413	51.01469	894.18236	1262.01965	123.63729	770.24811	1335.25604	49.79565	757.1122	1337.21252	67.12599	720.20615	1366.55212	410.19981	913.60405	1337.97989	146.90418	914.3602	1319.40536	376.0173	982.05017	1166.61789	205.67238	998.21587	1152.39059	414.40922	611.64352	1222.72552	401.35078	468.47176	1292.31491	337.8915	278.25821	1330.16602	361.81751	121.59094	1274.82552	305.31183	72.52686	1218.24516	326.05343	44.81684	1406.72211	148.51612	641.32179	1149.70772	139.76438	463.91949	1245.24651	150.55201	307.63214	1143.67188	147.33337	183.32273	983.43895	197.19137	178.9784	901.51131	203.11661	43.63369	1050.32303
330	10.977	369.26292	1416.35712	1544.84573	199.00026	1390.73883	1534.59015	390.33848	1503.00018	1454.98245	170.82127	1462.9628	1467.43484	361.85055	1283.9296	1367.22839	228.80341	1282.00378	1359.15268	369.44908	1356.91986	1260.38124	219.25072	1355.49866	1259.7966	305.10874	1207.5621	1157.82822	293.30912	1223.67325	1401.99661	289.68889	1121.30768	1436.61987	464.93214	1311.95267	1325.86273	517.83604	1071.65802	1284.99115	521.82945	986.13533	1305.77118	513.07644	914.06487	1281.92398	445.09838	769.46564	1355.65308	518.22002	766.28677	1356.78894	492.58804	709.35287	1397.50305	137.13735	1314.5665	1318.00339	81.4963	1112.7005	1235.73441	57.46951	989.49181	1273.56117	55.71252	894.28261	1279.71771	129.85572	772.1756	1354.6991	55.81102	758.63785	1357.11975	74.02525	722.21504	1387.18918	413.48293	913.7516	1351.46576	150.08874	914.99863	1332.69424	378.91193	981.88454	1179.81392	208.91733	997.92542	1165.30945	416.30157	612.07218	1232.68173	402.8931	467.98985	1300.08392	338.34991	277.11252	1334.80545	361.99211	121.47503	1277.30637	305.4744	73.30034	1218.9875	326.09619	44.83922	1406.64261	150.92096	639.02496	1168.83415	140.17825	463.675	1269.524	150.29325	310.455	1163.56049	147.98658	192.89392	998.29147	199.50098	192.36513	917.48726	202.27388	44.30982	1055.765
331	11.01	373.20389	1417.20184	1556.06293	202.94046	1391.69342	1546.08353	394.30931	1503.53363	1465.92514	174.71849	1463.74542	1478.73779	365.28557	1284.26071	1379.17572	232.29969	1282.66144	1371.19965	373.07461	1356.77826	1271.89499	222.77428	1355.69504	1271.46446	308.34311	1207.28554	1169.80812	296.8627	1224.17603	1414.03961	293.07775	1122.03514	1449.36432	468.47233	1312.04468	1337.60147	521.39404	1071.36253	1298.87772	525.27081	986.00166	1320.50995	516.30867	913.41125	1297.71652	447.29591	770.42206	1374.69131	520.63831	766.98624	1375.61142	494.93172	710.9214	1417.21878	140.72731	1315.11566	1330.00793	84.36171	1112.26669	1250.39528	61.23598	989.50829	1289.73633	60.15496	894.20242	1297.38129	135.85528	773.89847	1373.81485	61.95666	759.64272	1377.10922	80.65115	724.12857	1407.51099	416.42574	913.56514	1364.2276	152.94889	915.53535	1345.16541	381.94988	981.43394	1192.31361	211.87984	997.37381	1177.34299	418.16814	612.47089	1241.97975	404.45866	467.42378	1307.3764	338.7014	275.95617	1339.01718	362.2506	121.24698	1278.7529	305.56286	74.062	1219.6553	326.07399	44.77478	1406.63223	153.0074	636.07746	1188.48129	140.24755	463.51997	1295.23148	150.68174	313.08414	1185.73257	150.32196	202.27024	1015.81635	203.45467	205.94776	936.87241	201.34232	45.19128	1062.71889
